<?xml version="1.0" standalone="no"?>
<!DOCTYPE svg PUBLIC "-//W3C//DTD SVG 20010904//EN"
 "http://www.w3.org/TR/2001/REC-SVG-20010904/DTD/svg10.dtd">
<svg version="1.0" xmlns="http://www.w3.org/2000/svg"
 width="354.000000pt" height="138.000000pt" viewBox="0 0 354.000000 138.000000"
 preserveAspectRatio="xMidYMid meet">

<g transform="translate(0.000000,138.000000) scale(0.100000,-0.100000)"
fill="#000000" stroke="none">
<path d="M0 690 l0 -690 1185 0 1185 0 0 35 c0 33 2 35 35 35 33 0 35 -2 35
-35 l0 -35 550 0 550 0 0 690 0 690 -1770 0 -1770 0 0 -690z m2440 415 c0 -33
-2 -35 -35 -35 -33 0 -35 2 -35 35 0 33 2 35 35 35 33 0 35 -2 35 -35z m-2083
-231 c-3 -3 -12 -4 -19 -1 -8 3 -5 6 6 6 11 1 17 -2 13 -5z m110 -271 c-1 -54
-3 -12 -3 92 0 105 2 149 3 98 2 -51 2 -136 0 -190z m230 225 c-2 -13 -4 -5
-4 17 -1 22 1 32 4 23 2 -10 2 -28 0 -40z m60 -225 c-1 -54 -3 -12 -3 92 0
105 2 149 3 98 2 -51 2 -136 0 -190z m230 225 c-2 -13 -4 -5 -4 17 -1 22 1 32
4 23 2 -10 2 -28 0 -40z m62 -135 c-1 -126 -4 -170 -9 -133 -7 51 -1 320 6
320 2 0 3 -84 3 -187z m1118 181 c-3 -3 -12 -4 -19 -1 -8 3 -5 6 6 6 11 1 17
-2 13 -5z m390 0 c-3 -3 -12 -4 -19 -1 -8 3 -5 6 6 6 11 1 17 -2 13 -5z m510
-271 c-1 -54 -3 -12 -3 92 0 105 2 149 3 98 2 -51 2 -136 0 -190z m150 0 c-1
-54 -3 -12 -3 92 0 105 2 149 3 98 2 -51 2 -136 0 -190z m230 225 c-2 -13 -4
-5 -4 17 -1 22 1 32 4 23 2 -10 2 -28 0 -40z m-3060 10 c-3 -7 -5 -2 -5 12 0
14 2 19 5 13 2 -7 2 -19 0 -25z m953 29 c0 -2 -10 -12 -22 -23 l-23 -19 19 23
c18 21 26 27 26 19z m685 -9 c-11 -6 -29 -18 -40 -27 -12 -9 -8 -4 7 12 16 15
34 27 41 27 6 0 3 -6 -8 -12z m390 0 c-11 -6 -29 -18 -40 -27 -12 -9 -8 -4 7
12 16 15 34 27 41 27 6 0 3 -6 -8 -12z m-548 -75 c-2 -16 -4 -3 -4 27 0 30 2
43 4 28 2 -16 2 -40 0 -55z m403 -5 c0 -7 -6 -4 -12 7 -6 11 -20 31 -32 45
-11 14 -6 11 12 -7 17 -18 32 -38 32 -45z m390 0 c0 -7 -6 -4 -12 7 -6 11 -20
31 -32 45 -11 14 -6 11 12 -7 17 -18 32 -38 32 -45z m127 60 c-3 -8 -6 -5 -6
6 -1 11 2 17 5 13 3 -3 4 -12 1 -19z m-2649 -15 c-14 -16 -30 -37 -36 -48 -6
-11 -12 -15 -12 -8 0 13 57 83 68 83 3 0 -6 -12 -20 -27z m1359 -40 c-2 -16
-4 -5 -4 22 0 28 2 40 4 28 2 -13 2 -35 0 -50z m-1126 14 c-10 -9 -11 -8 -5 6
3 10 9 15 12 12 3 -3 0 -11 -7 -18z m929 -22 c0 -45 0 -45 -35 -45 -38 0 -40
-2 -25 -31 6 -10 8 -19 6 -19 -3 0 -10 9 -16 20 -9 17 -5 29 25 70 20 28 39
50 41 50 2 0 4 -20 4 -45z m817 39 c-3 -3 -12 -4 -19 -1 -8 3 -5 6 6 6 11 1
17 -2 13 -5z m390 0 c-3 -3 -12 -4 -19 -1 -8 3 -5 6 6 6 11 1 17 -2 13 -5z
m200 -16 c-3 -8 -6 -5 -6 6 -1 11 2 17 5 13 3 -3 4 -12 1 -19z m-2447 8 c0 -2
-9 -6 -20 -9 -11 -3 -18 -1 -14 4 5 9 34 13 34 5z m1819 1 c-2 -1 -13 -9 -24
-17 -19 -14 -19 -14 -6 3 7 9 18 17 24 17 6 0 8 -1 6 -3z m390 0 c-2 -1 -13
-9 -24 -17 -19 -14 -19 -14 -6 3 7 9 18 17 24 17 6 0 8 -1 6 -3z m438 -19 c-3
-8 -6 -5 -6 6 -1 11 2 17 5 13 3 -3 4 -12 1 -19z m-1120 -10 c-3 -8 -6 -5 -6
6 -1 11 2 17 5 13 3 -3 4 -12 1 -19z m-217 -63 l-7 -60 -2 70 c0 42 3 65 8 60
5 -6 6 -36 1 -70z m1237 53 c-3 -8 -6 -5 -6 6 -1 11 2 17 5 13 3 -3 4 -12 1
-19z m-2624 -23 c-3 -9 -8 -14 -10 -11 -3 3 -2 9 2 15 9 16 15 13 8 -4z m1594
-7 c-3 -8 -6 -5 -6 6 -1 11 2 17 5 13 3 -3 4 -12 1 -19z m160 0 c-3 -8 -6 -5
-6 6 -1 11 2 17 5 13 3 -3 4 -12 1 -19z m390 0 c-3 -8 -6 -5 -6 6 -1 11 2 17
5 13 3 -3 4 -12 1 -19z m-620 -10 c-3 -8 -6 -5 -6 6 -1 11 2 17 5 13 3 -3 4
-12 1 -19z m-1089 5 c-10 -2 -28 -2 -40 0 -13 2 -5 4 17 4 22 1 32 -1 23 -4z
m69 -55 c-2 -13 -4 -5 -4 17 -1 22 1 32 4 23 2 -10 2 -28 0 -40z m290 0 c-2
-13 -4 -5 -4 17 -1 22 1 32 4 23 2 -10 2 -28 0 -40z m610 30 c-3 -8 -6 -5 -6
6 -1 11 2 17 5 13 3 -3 4 -12 1 -19z m1850 -30 c-2 -13 -4 -5 -4 17 -1 22 1
32 4 23 2 -10 2 -28 0 -40z m-3139 -21 c24 -4 24 -4 -5 -6 -32 -1 -33 0 -31
37 1 36 1 36 5 5 3 -26 9 -33 31 -36z m1399 31 c-3 -8 -6 -5 -6 6 -1 11 2 17
5 13 3 -3 4 -12 1 -19z m-210 -60 c-2 -13 -4 -3 -4 22 0 25 2 35 4 23 2 -13 2
-33 0 -45z m110 40 c-3 -8 -6 -5 -6 6 -1 11 2 17 5 13 3 -3 4 -12 1 -19z
m-157 -28 l0 -40 -40 0 -40 0 0 40 0 40 40 0 40 0 0 -40z m1397 18 c-3 -8 -6
-5 -6 6 -1 11 2 17 5 13 3 -3 4 -12 1 -19z m-1658 -18 c11 -23 11 -24 -3 -6
-13 16 -18 17 -33 5 -15 -12 -15 -10 1 9 11 12 20 21 21 20 1 -2 8 -14 14 -28z
m91 10 c6 -11 8 -20 6 -20 -3 0 -10 9 -16 20 -6 11 -8 20 -6 20 3 0 10 -9 16
-20z m411 -13 c-8 -8 -11 -7 -11 4 0 20 13 34 18 19 3 -7 -1 -17 -7 -23z m196
-34 c-2 -16 -4 -5 -4 22 0 28 2 40 4 28 2 -13 2 -35 0 -50z m990 45 c-3 -8 -6
-5 -6 6 -1 11 2 17 5 13 3 -3 4 -12 1 -19z m-1120 -10 c-3 -8 -6 -5 -6 6 -1
11 2 17 5 13 3 -3 4 -12 1 -19z m50 -85 c-2 -21 -4 -4 -4 37 0 41 2 58 4 38 2
-21 2 -55 0 -75z m480 85 c-3 -8 -6 -5 -6 6 -1 11 2 17 5 13 3 -3 4 -12 1 -19z
m390 0 c-3 -8 -6 -5 -6 6 -1 11 2 17 5 13 3 -3 4 -12 1 -19z m193 -31 c0 -5
-4 -5 -10 -2 -5 3 -10 14 -10 23 0 15 2 15 10 2 5 -8 10 -19 10 -23z m-2655 3
c10 -11 16 -20 13 -20 -3 0 -13 9 -23 20 -10 11 -16 20 -13 20 3 0 13 -9 23
-20z m-43 -70 c18 -11 27 -20 19 -20 -17 0 -91 74 -91 91 0 8 9 -1 20 -19 11
-18 34 -41 52 -52z m1138 60 c6 -11 8 -20 6 -20 -3 0 -10 9 -16 20 -6 11 -8
20 -6 20 3 0 10 -9 16 -20z m684 -40 c11 -14 6 -11 -11 7 -18 18 -33 38 -33
45 0 7 6 4 12 -7 6 -11 20 -31 32 -45z m277 32 c-13 -25 -69 -72 -84 -72 -7 0
3 9 21 20 18 11 41 34 50 50 18 32 30 34 13 2z m113 -32 c11 -14 6 -11 -11 7
-18 18 -33 38 -33 45 0 7 6 4 12 -7 6 -11 20 -31 32 -45z m277 32 c-13 -25
-69 -72 -84 -72 -7 0 3 9 21 20 18 11 41 34 50 50 18 32 30 34 13 2z m-577
-11 c-2 -3 -12 3 -22 13 -16 17 -16 18 5 5 12 -7 20 -15 17 -18z m86 14 c-7
-8 -17 -15 -23 -15 -6 0 -2 7 9 15 25 19 30 19 14 0z m304 -14 c-2 -3 -12 3
-22 13 -16 17 -16 18 5 5 12 -7 20 -15 17 -18z m86 14 c-7 -8 -17 -15 -23 -15
-6 0 -2 7 9 15 25 19 30 19 14 0z m-1330 -25 c6 -11 8 -20 6 -20 -3 0 -10 9
-16 20 -6 11 -8 20 -6 20 3 0 10 -9 16 -20z m407 -12 c-3 -8 -6 -5 -6 6 -1 11
2 17 5 13 3 -3 4 -12 1 -19z m490 16 c-3 -3 -12 -4 -19 -1 -8 3 -5 6 6 6 11 1
17 -2 13 -5z m390 0 c-3 -3 -12 -4 -19 -1 -8 3 -5 6 6 6 11 1 17 -2 13 -5z
m-1177 -24 c6 -11 8 -20 6 -20 -3 0 -10 9 -16 20 -6 11 -8 20 -6 20 3 0 10 -9
16 -20z m227 -27 c-3 -10 -5 -4 -5 12 0 17 2 24 5 18 2 -7 2 -21 0 -30z m-77
2 c0 -8 5 -15 10 -15 6 0 10 -11 10 -25 0 -22 -4 -25 -35 -25 -34 0 -35 1 -35
40 0 36 3 40 25 40 16 0 25 -6 25 -15z m200 -8 c34 -4 33 -4 -4 -3 -26 1 -41
6 -43 16 -3 10 -2 11 4 3 4 -6 24 -13 43 -16z m-1453 -3 c-3 -3 -12 -4 -19 -1
-8 3 -5 6 6 6 11 1 17 -2 13 -5z m130 0 c-3 -3 -12 -4 -19 -1 -8 3 -5 6 6 6
11 1 17 -2 13 -5z m1710 0 c-3 -3 -12 -4 -19 -1 -8 3 -5 6 6 6 11 1 17 -2 13
-5z m390 0 c-3 -3 -12 -4 -19 -1 -8 3 -5 6 6 6 11 1 17 -2 13 -5z"/>
</g>
</svg>
